<svg xmlns="http://www.w3.org/2000/svg" viewBox="0 0 2077.12 254.47"><defs><style>.cls-1{fill:#fff;}</style></defs><g id="Layer_2" data-name="Layer 2"><g id="Layer_1-2" data-name="Layer 1"><path class="cls-1" d="M215.85,0c66.59-.9,116,55.05,115.5,121.28.54,65.87-48.91,122.18-115.5,121.28H0V0ZM198.16,76.89H94.57v88.8H198.16c24.54,0,38.44-20,38.44-44.4C236.6,96.74,222.7,76.89,198.16,76.89Z"/><path class="cls-1" d="M468.57,0H581L711.13,242.56H604.65l-19.13-41.51H464.06l-19.13,41.51H338.45Zm22.92,141.85h66.6L524.88,70.2Z"/><path class="cls-1" d="M854.67,168.38,928.67,0h106.48L910.8,242.56H798.36L674.2,0H780.68Z"/><path class="cls-1" d="M1162.81,0V242.56h-94.57V0Z"/><path class="cls-1" d="M1238.85,0h283.89V62.08H1333.42v31h189.32v56.13H1333.42v31h189.32v62.27H1238.85Z"/><path class="cls-1" d="M1740.63,99.8c67.68,3.43,162.79,8.12,162.61,68.94,0,69.3-79.41,85.73-164.59,85.73-85-.18-155.57-10.47-164.59-85.73h99.08c10.82,18.77,35.91,23.64,65.51,23.64,29.41,0,65.51-4.87,65.51-23.64,0-10.65-29.42-12.27-67.5-14.07-67.68-3.43-162.79-8.13-162.6-68.76,0-69.31,79.4-85.91,164.59-85.91,85,.54,155.57,10.11,164.59,85.91h-99.08c-10.83-19.13-35.91-23.65-65.51-23.65-29.42,0-65.51,4.33-65.51,23.65C1673.14,96.55,1702.55,98,1740.63,99.8Z"/><path class="cls-1" d="M2077.12,58.18c0,19.47-10,32.31-24,40a72.66,72.66,0,0,1-16.45,6.57,112.34,112.34,0,0,1-30.31,4,112.84,112.84,0,0,1-30.38-4c-21.68-5.83-40.49-20-40.49-46.54V50.59c0-19.54,10-32.3,24-40A76.75,76.75,0,0,1,1975.94,4a117.67,117.67,0,0,1,60.69,0c21.68,6,40.49,20,40.49,46.61Zm-14.53-7.59c-.15-5.9.15-24.34-29.87-32.6a102.45,102.45,0,0,0-52.8,0h-.15a63.13,63.13,0,0,0-13.2,5.31c-11.06,5.9-16.59,15-16.59,27.29v7.59c.15,5.83-.15,24.34,29.87,32.6a99.59,99.59,0,0,0,26.47,3.47,98.17,98.17,0,0,0,26.33-3.47h.15a63.13,63.13,0,0,0,13.2-5.31c11.06-5.9,16.59-15,16.59-27.29Zm-32,15,12,14.23h-22.79L2010,67.4H1991.5V79.79H1970V29h51.69a20.82,20.82,0,0,1,14.68,5.68,17.83,17.83,0,0,1,6.12,13.5C2042.53,55.9,2037.74,62.39,2030.58,65.56Zm-14.23-13.05a4.33,4.33,0,1,0,0-8.63H1991.5v8.63Z"/></g></g></svg>